<?xml version="1.0" encoding="UTF-8" standalone="no"?>
<svg
   width="30"
   height="30"
   fill="currentColor"
   class="bi bi-rss-fill"
   viewBox="0 0 30 30"
   version="1.1"
   id="svg1"
   sodipodi:docname="feed.svg"
   inkscape:version="1.3.1 (9b9bdc1480, 2023-11-25, custom)"
   xmlns:inkscape="http://www.inkscape.org/namespaces/inkscape"
   xmlns:sodipodi="http://sodipodi.sourceforge.net/DTD/sodipodi-0.dtd"
   xmlns="http://www.w3.org/2000/svg"
   xmlns:svg="http://www.w3.org/2000/svg">
  <defs
     id="defs1" />
  <sodipodi:namedview
     id="namedview1"
     pagecolor="#ffffff"
     bordercolor="#000000"
     borderopacity="0.25"
     inkscape:showpageshadow="2"
     inkscape:pageopacity="0.0"
     inkscape:pagecheckerboard="0"
     inkscape:deskcolor="#d1d1d1"
     inkscape:zoom="73"
     inkscape:cx="7.9931507"
     inkscape:cy="8"
     inkscape:window-width="3440"
     inkscape:window-height="1371"
     inkscape:window-x="0"
     inkscape:window-y="0"
     inkscape:window-maximized="1"
     inkscape:current-layer="svg1" />
  <path
     d="M 3.75,0 A 3.75,3.75 0 0 0 0,3.75 v 22.5 A 3.75,3.75 0 0 0 3.75,30 h 22.5 A 3.75,3.75 0 0 0 30,26.25 V 3.75 A 3.75,3.75 0 0 0 26.25,0 Z m 2.8125,4.6875 c 10.355625,0 18.75,8.394375 18.75,18.75 a 1.875,1.875 0 1 1 -3.75,0 15,15 0 0 0 -15,-15 1.875,1.875 0 0 1 0,-3.75 m 0,7.5 a 11.25,11.25 0 0 1 11.25,11.25 1.875,1.875 0 1 1 -3.75,0 7.5,7.5 0 0 0 -7.5,-7.5 1.875,1.875 0 0 1 0,-3.75 M 7.5,25.3125 a 2.8125,2.8125 0 1 1 0,-5.625 2.8125,2.8125 0 0 1 0,5.625"
     id="path1"
     style="stroke-width:1.875" />
</svg>
