<?xml version="1.0" encoding="UTF-8" standalone="no"?>
<svg
   width="20"
   height="20"
   fill="currentColor"
   class="bi bi-rss-fill"
   viewBox="0 0 20 20"
   version="1.1"
   id="svg1"
   sodipodi:docname="feed.svg"
   inkscape:version="1.3.1 (9b9bdc1480, 2023-11-25, custom)"
   xmlns:inkscape="http://www.inkscape.org/namespaces/inkscape"
   xmlns:sodipodi="http://sodipodi.sourceforge.net/DTD/sodipodi-0.dtd"
   xmlns="http://www.w3.org/2000/svg"
   xmlns:svg="http://www.w3.org/2000/svg">
  <defs
     id="defs1" />
  <sodipodi:namedview
     id="namedview1"
     pagecolor="#ffffff"
     bordercolor="#000000"
     borderopacity="0.25"
     inkscape:showpageshadow="2"
     inkscape:pageopacity="0.0"
     inkscape:pagecheckerboard="0"
     inkscape:deskcolor="#d1d1d1"
     inkscape:zoom="73"
     inkscape:cx="7.9931507"
     inkscape:cy="8"
     inkscape:window-width="3440"
     inkscape:window-height="1371"
     inkscape:window-x="0"
     inkscape:window-y="0"
     inkscape:window-maximized="1"
     inkscape:current-layer="svg1" />
  <path
     d="M 2.5,0 A 2.5,2.5 0 0 0 0,2.5 v 15 A 2.5,2.5 0 0 0 2.5,20 h 15 A 2.5,2.5 0 0 0 20,17.5 V 2.5 A 2.5,2.5 0 0 0 17.5,0 Z m 1.875,3.125 c 6.90375,0 12.5,5.59625 12.5,12.5 a 1.25,1.25 0 1 1 -2.5,0 10,10 0 0 0 -10,-10 1.25,1.25 0 0 1 0,-2.5 m 0,5 a 7.5,7.5 0 0 1 7.5,7.5 1.25,1.25 0 1 1 -2.5,0 5,5 0 0 0 -5,-5 1.25,1.25 0 0 1 0,-2.5 M 5,16.875 a 1.875,1.875 0 1 1 0,-3.75 1.875,1.875 0 0 1 0,3.75"
     id="path1"
     style="stroke-width:1.25" />
</svg>
