<?xml version="1.0" encoding="UTF-8" standalone="no"?>
<svg
   width="30"
   height="30"
   fill="currentColor"
   class="bi bi-github"
   viewBox="0 0 30 30"
   version="1.1"
   id="svg1"
   sodipodi:docname="github.svg"
   inkscape:version="1.3.1 (9b9bdc1480, 2023-11-25, custom)"
   xmlns:inkscape="http://www.inkscape.org/namespaces/inkscape"
   xmlns:sodipodi="http://sodipodi.sourceforge.net/DTD/sodipodi-0.dtd"
   xmlns="http://www.w3.org/2000/svg"
   xmlns:svg="http://www.w3.org/2000/svg">
  <defs
     id="defs1" />
  <sodipodi:namedview
     id="namedview1"
     pagecolor="#ffffff"
     bordercolor="#000000"
     borderopacity="0.25"
     inkscape:showpageshadow="2"
     inkscape:pageopacity="0.0"
     inkscape:pagecheckerboard="0"
     inkscape:deskcolor="#d1d1d1"
     inkscape:zoom="73"
     inkscape:cx="7.9931507"
     inkscape:cy="8"
     inkscape:window-width="3440"
     inkscape:window-height="1371"
     inkscape:window-x="0"
     inkscape:window-y="0"
     inkscape:window-maximized="1"
     inkscape:current-layer="svg1" />
  <path
     d="M 15,0 C 6.7125,0 0,6.8822849 0,15.379408 c 0,6.805388 4.29375,12.553441 10.25625,14.591213 0.75,0.134569 1.03125,-0.326813 1.03125,-0.730522 0,-0.365261 -0.01875,-1.576389 -0.01875,-2.864415 C 7.5,27.086982 6.525,25.433695 6.225,24.568604 6.05625,24.126446 5.325,22.761523 4.6875,22.396262 4.1625,22.107898 3.4125,21.396601 4.66875,21.377377 c 1.18125,-0.01922 2.025,1.115007 2.30625,1.576389 1.35,2.326135 3.50625,1.67251 4.36875,1.268801 0.13125,-0.999661 0.525,-1.672511 0.95625,-2.056996 -3.3375,-0.384485 -6.825,-1.710959 -6.825,-7.593582 0,-1.672511 0.58125,-3.056658 1.5375,-4.133216 -0.15,-0.384485 -0.675,-1.9608745 0.15,-4.0755431 0,0 1.25625,-0.4037094 4.125,1.5763893 1.2,-0.3460367 2.475,-0.519055 3.75,-0.519055 1.275,0 2.55,0.1730183 3.75,0.519055 2.86875,-1.999323 4.125,-1.5763893 4.125,-1.5763893 0.825,2.1146686 0.3,3.6910581 0.15,4.0755431 0.95625,1.076558 1.5375,2.441481 1.5375,4.133216 0,5.901847 -3.50625,7.209097 -6.84375,7.593582 0.54375,0.480607 1.0125,1.403371 1.0125,2.845191 0,2.056995 -0.01875,3.710282 -0.01875,4.229337 0,0.403709 0.28125,0.884316 1.03125,0.730522 A 15.01875,15.398632 0 0 0 30,15.379408 C 30,6.8822849 23.2875,0 15,0"
     id="path1"
     style="stroke-width:1.89857" />
</svg>
