<?xml version="1.0" encoding="UTF-8" standalone="no"?>
<svg
   version="1.1"
   viewBox="0 0 17.142857 23.333333"
   height="20"
   width="20"
   id="svg1"
   sodipodi:docname="github.svg"
   inkscape:version="1.3.1 (9b9bdc1480, 2023-11-25, custom)"
   xmlns:inkscape="http://www.inkscape.org/namespaces/inkscape"
   xmlns:sodipodi="http://sodipodi.sourceforge.net/DTD/sodipodi-0.dtd"
   xmlns="http://www.w3.org/2000/svg"
   xmlns:svg="http://www.w3.org/2000/svg">
  <defs
     id="defs1" />
  <sodipodi:namedview
     id="namedview1"
     pagecolor="#ffffff"
     bordercolor="#000000"
     borderopacity="0.25"
     inkscape:showpageshadow="2"
     inkscape:pageopacity="0.0"
     inkscape:pagecheckerboard="0"
     inkscape:deskcolor="#d1d1d1"
     inkscape:zoom="48.666667"
     inkscape:cx="14.003425"
     inkscape:cy="12"
     inkscape:window-width="3440"
     inkscape:window-height="1371"
     inkscape:window-x="0"
     inkscape:window-y="0"
     inkscape:window-maximized="1"
     inkscape:current-layer="svg1" />
  <path
     d="m 8.570456,9.967e-4 c 6.441509,0 11.667639,5.3571048 11.667639,11.9600483 0,5.279364 -3.341806,9.764382 -7.975803,11.353075 -0.592133,0.108637 -0.805067,-0.265114 -0.805067,-0.576075 0,-0.389699 0.01556,-1.681384 0.01556,-3.286024 0,-1.121254 -0.364614,-1.83786 -0.789511,-2.211612 2.597992,-0.296011 5.332108,-1.308628 5.332108,-5.902284 0,-1.308628 -0.45601,-2.367092 -1.199822,-3.208282 C 14.937098,7.8178847 15.331853,6.6039398 14.694022,4.9534532 13.721719,4.6414953 11.488338,6.1833448 11.488338,6.1833448 10.561733,5.9182304 9.559289,5.7786965 8.571429,5.7786965 c -0.98786,0 -1.9903051,0.1405306 -2.9169101,0.4046483 0,0 -2.2333805,-1.5418495 -3.2056838,-1.2298916 C 1.8110042,6.6039398 2.2057593,7.8188814 2.3272972,8.129843 1.5825129,8.971033 1.127475,10.029497 1.127475,11.338125 c 0,4.578706 2.7195322,5.606273 5.3175265,5.902284 -0.3344724,0.311958 -0.637831,0.84119 -0.7447843,1.603643 C 5.0312725,19.15601 3.3297419,19.685242 2.3127127,17.847382 1.6748817,16.71018 0.5197855,16.61749 0.5197855,16.61749 c -1.1395394,-0.01595 -0.07584,0.731556 -0.07584,0.731556 0.7593689,0.357805 1.2912187,1.744174 1.2912187,1.744174 0.6835292,2.133872 3.9349113,1.417266 3.9349113,1.417266 0,0.99667 0.015557,1.930551 0.015557,2.226562 0,0.311958 -0.2129344,0.685709 -0.8050671,0.576076 C 0.2465683,21.72443 -3.095238,17.239412 -3.095238,11.960048 -3.095238,5.3571048 2.130892,0 8.572401,0 Z M 1.3238803,17.177619 c 0.030141,-0.06279 -0.015557,-0.140531 -0.1059811,-0.186378 -0.091397,-0.0309 -0.1672362,-0.01595 -0.1973776,0.0309 -0.030141,0.06279 0.015557,0.140531 0.1059811,0.186378 0.07584,0.04684 0.1672362,0.0309 0.1973776,-0.0309 z M 1.794475,17.707848 C 1.85573,17.661008 1.840173,17.552367 1.764334,17.45868 1.688494,17.38094 1.5825133,17.350043 1.5212582,17.41184 c -0.061255,0.04684 -0.045698,0.15548 0.030141,0.249167 0.07584,0.07774 0.1818207,0.108637 0.2430758,0.04684 z m 0.4560103,0.700659 c 0.07584,-0.06279 0.07584,-0.186377 0,-0.296011 -0.061255,-0.108637 -0.1818208,-0.155481 -0.2586327,-0.09369 -0.07584,0.04684 -0.07584,0.171427 0,0.280064 0.07584,0.108637 0.1973776,0.155481 0.2586327,0.108637 z m 0.6378309,0.653816 c 0.061255,-0.06279 0.030141,-0.202324 -0.061255,-0.296011 -0.1059811,-0.108637 -0.2430758,-0.124584 -0.3043309,-0.04684 -0.07584,0.06279 -0.045698,0.202325 0.061255,0.296012 0.105981,0.108637 0.2430758,0.124583 0.3043309,0.04684 z m 0.8663222,0.389698 c 0.030141,-0.09369 -0.061255,-0.202324 -0.1973776,-0.249167 -0.1215379,-0.0309 -0.2586326,0.01595 -0.288774,0.108637 -0.030141,0.09269 0.061255,0.202324 0.1973775,0.233221 0.1215379,0.04684 0.2586327,0 0.2887741,-0.09369 z m 0.9567464,0.07774 c 0,-0.108637 -0.1215379,-0.186378 -0.2586327,-0.171428 -0.1370947,0 -0.2430758,0.07774 -0.2430758,0.171428 0,0.108637 0.1059811,0.186377 0.2586327,0.171427 0.1370947,0 0.2430758,-0.07774 0.2430758,-0.171427 z m 0.8809067,-0.15548 C 5.5767345,19.280594 5.4551968,19.2188 5.3190743,19.23375 c -0.1370948,0.0309 -0.227519,0.124584 -0.2129344,0.233221 0.015557,0.09369 0.1370948,0.155481 0.2732172,0.124584 0.1361225,-0.0309 0.227519,-0.124584 0.2129344,-0.218271 z"
     id="path1"
     style="stroke-width:0.984411" />
</svg>
