<?xml version="1.0" encoding="UTF-8" standalone="no"?>
<svg
   width="20"
   height="20"
   fill="currentColor"
   class="bi bi-threads-fill"
   viewBox="0 0 20 20"
   version="1.1"
   id="svg2"
   sodipodi:docname="tags.svg"
   inkscape:version="1.3.1 (9b9bdc1480, 2023-11-25, custom)"
   xmlns:inkscape="http://www.inkscape.org/namespaces/inkscape"
   xmlns:sodipodi="http://sodipodi.sourceforge.net/DTD/sodipodi-0.dtd"
   xmlns="http://www.w3.org/2000/svg"
   xmlns:svg="http://www.w3.org/2000/svg">
  <defs
     id="defs2" />
  <sodipodi:namedview
     id="namedview2"
     pagecolor="#ffffff"
     bordercolor="#000000"
     borderopacity="0.25"
     inkscape:showpageshadow="2"
     inkscape:pageopacity="0.0"
     inkscape:pagecheckerboard="0"
     inkscape:deskcolor="#d1d1d1"
     inkscape:zoom="73"
     inkscape:cx="7.9931507"
     inkscape:cy="8"
     inkscape:window-width="3440"
     inkscape:window-height="1371"
     inkscape:window-x="0"
     inkscape:window-y="0"
     inkscape:window-maximized="1"
     inkscape:current-layer="svg2" />
  <path
     d="m 6.81,9.204 c 0,-0.41 0.197,-1.062 1.727,-1.062 0.469,0 0.758,0.034 1.146,0.121 -0.124,1.606 -0.91,1.818 -1.674,1.818 -0.418,0 -1.2,-0.218 -1.2,-0.877 z"
     id="path1" />
  <path
     d="M 3.2375,20 H 16.762501 A 3.2375,3.2375 0 0 0 20,16.7625 V 3.2375 A 3.2375,3.2375 0 0 0 16.762501,0 H 3.2375 A 3.2375,3.2375 0 0 0 0,3.2375 v 13.525 A 3.2375,3.2375 0 0 0 3.2375,20 M 7.3325,7.3875 C 8.0412499,6.375 8.9762499,5.98 10.27,5.98 c 0.9125,0 1.68875,0.3075 2.24375,0.88875 0.553749,0.5825 0.87,1.415 0.9425,2.47875 q 0.46,0.1925 0.8475,0.45375 c 1.04,0.69875 1.6125,1.74375 1.6125,2.94125 0,2.54625 -2.0875,4.7575 -5.865,4.7575 C 6.8075,17.5 3.4375,15.6125 3.4375,9.995 3.4375,4.4075 6.7012499,2.5 10.04125,2.5 c 1.5425,0 5.161251,0.2275 6.521249,4.72125 l -1.274998,0.33 c -1.052501,-3.2 -3.258751,-3.71 -5.280001,-3.71 -3.3437501,0 -5.2337499,2.035 -5.2337499,6.36625 0,3.88375 2.1125,5.94625 5.2774999,5.94625 2.60375,0 4.545,-1.3525 4.545,-3.33375 0,-1.34875 -1.1325,-1.99375 -1.19125,-1.99375 -0.22125,1.15625 -0.81375,3.1025 -3.4162499,3.1025 -1.5162501,0 -2.8250002,-1.0475 -2.8250002,-2.42 0,-1.96 1.86,-2.67 3.3287501,-2.67 0.55,0 1.2125,0.0375 1.55875,0.1075 0,-0.5975 -0.505,-1.62 -1.7825,-1.62 -1.13875,0 -1.4500001,0.36 -1.8125001,0.78 l -0.03,0.03375 C 8.1737499,7.97125 7.3325,7.38875 7.3325,7.38875 Z"
     id="path2"
     style="stroke-width:1.25" />
</svg>
