<?xml version="1.0" encoding="UTF-8" standalone="no"?>
<svg
   width="30"
   height="30"
   fill="currentColor"
   class="bi bi-threads-fill"
   viewBox="0 0 30 30"
   version="1.1"
   id="svg2"
   sodipodi:docname="tags.svg"
   inkscape:version="1.3.1 (9b9bdc1480, 2023-11-25, custom)"
   xmlns:inkscape="http://www.inkscape.org/namespaces/inkscape"
   xmlns:sodipodi="http://sodipodi.sourceforge.net/DTD/sodipodi-0.dtd"
   xmlns="http://www.w3.org/2000/svg"
   xmlns:svg="http://www.w3.org/2000/svg">
  <defs
     id="defs2" />
  <sodipodi:namedview
     id="namedview2"
     pagecolor="#ffffff"
     bordercolor="#000000"
     borderopacity="0.25"
     inkscape:showpageshadow="2"
     inkscape:pageopacity="0.0"
     inkscape:pagecheckerboard="0"
     inkscape:deskcolor="#d1d1d1"
     inkscape:zoom="73"
     inkscape:cx="7.9931507"
     inkscape:cy="8"
     inkscape:window-width="3440"
     inkscape:window-height="1371"
     inkscape:window-x="0"
     inkscape:window-y="0"
     inkscape:window-maximized="1"
     inkscape:current-layer="svg2" />
  <path
     d="m 6.81,9.204 c 0,-0.41 0.197,-1.062 1.727,-1.062 0.469,0 0.758,0.034 1.146,0.121 -0.124,1.606 -0.91,1.818 -1.674,1.818 -0.418,0 -1.2,-0.218 -1.2,-0.877 z"
     id="path1" />
  <path
     d="M 4.85625,30 H 25.143751 A 4.85625,4.85625 0 0 0 30,25.14375 V 4.85625 A 4.85625,4.85625 0 0 0 25.143751,0 H 4.85625 A 4.85625,4.85625 0 0 0 0,4.85625 v 20.2875 A 4.85625,4.85625 0 0 0 4.85625,30 m 6.1425,-18.91875 C 12.061875,9.5625 13.464375,8.97 15.405,8.97 c 1.36875,0 2.533125,0.46125 3.365625,1.333125 0.830623,0.87375 1.305,2.1225 1.41375,3.718125 q 0.69,0.28875 1.27125,0.680625 c 1.56,1.048125 2.41875,2.615625 2.41875,4.411875 0,3.819375 -3.13125,7.13625 -8.7975,7.13625 -4.865625,0 -9.920625,-2.83125 -9.920625,-11.2575 0,-8.38125 4.895625,-11.2425 9.905625,-11.2425 2.31375,0 7.741876,0.34125 9.781873,7.081875 l -1.912497,0.495 c -1.578751,-4.8 -4.888126,-5.565 -7.920001,-5.565 -5.0156252,0 -7.8506249,3.0525 -7.8506249,9.549375 0,5.825625 3.1687499,8.919375 7.9162499,8.919375 3.905625,0 6.8175,-2.02875 6.8175,-5.000625 0,-2.023125 -1.69875,-2.990625 -1.786875,-2.990625 -0.331875,1.734375 -1.220625,4.65375 -5.124375,4.65375 -2.274375,0 -4.2375,-1.57125 -4.2375,-3.63 0,-2.94 2.79,-4.005 4.993125,-4.005 0.825,0 1.81875,0.05625 2.338125,0.16125 0,-0.89625 -0.7575,-2.43 -2.67375,-2.43 -1.708125,0 -2.175,0.54 -2.71875,1.17 l -0.045,0.05063 c -0.37875,-0.25313 -1.640625,-1.12688 -1.640625,-1.12688 z"
     id="path2"
     style="stroke-width:1.875" />
</svg>
