<?xml version="1.0" encoding="UTF-8" standalone="no"?>
<svg
   width="30"
   height="30"
   fill="currentColor"
   class="bi bi-telegram"
   viewBox="0 0 30 30"
   version="1.1"
   id="svg1"
   sodipodi:docname="telegram.svg"
   inkscape:version="1.3.1 (9b9bdc1480, 2023-11-25, custom)"
   xmlns:inkscape="http://www.inkscape.org/namespaces/inkscape"
   xmlns:sodipodi="http://sodipodi.sourceforge.net/DTD/sodipodi-0.dtd"
   xmlns="http://www.w3.org/2000/svg"
   xmlns:svg="http://www.w3.org/2000/svg">
  <defs
     id="defs1" />
  <sodipodi:namedview
     id="namedview1"
     pagecolor="#ffffff"
     bordercolor="#000000"
     borderopacity="0.25"
     inkscape:showpageshadow="2"
     inkscape:pageopacity="0.0"
     inkscape:pagecheckerboard="0"
     inkscape:deskcolor="#d1d1d1"
     inkscape:zoom="73"
     inkscape:cx="7.9931507"
     inkscape:cy="8"
     inkscape:window-width="3440"
     inkscape:window-height="1371"
     inkscape:window-x="0"
     inkscape:window-y="0"
     inkscape:window-maximized="1"
     inkscape:current-layer="svg1" />
  <path
     d="m 30,14.998893 a 15,15 0 1 1 -29.99999995625,0 A 15,15 0 0 1 30,14.998893 m -14.461875,-3.92625 q -2.190001,0.91125 -8.7487499,3.76875 -1.063125,0.421875 -1.115625,0.82875 c -0.05625,0.455625 0.515625,0.635625 1.29375,0.88125 l 0.3281243,0.103125 c 0.765,0.249375 1.79625,0.54 2.330625,0.55125 q 0.7312496,0.01875 1.6274996,-0.6 6.129376,-4.13625 6.326251,-4.18125 c 0.09375,-0.0225 0.225,-0.04875 0.31125,0.03 0.08625,0.07875 0.07875,0.225 0.06938,0.264375 -0.05625,0.241875 -2.300625,2.326875 -3.461251,3.406875 -0.361875,0.3375 -0.61875,0.575625 -0.67125,0.63 a 15,15 0 0 1 -0.3525,0.34875 c -0.7125,0.68625 -1.245,1.2 0.02812,2.04 0.613125,0.405 1.104375,0.736875 1.593751,1.070625 0.5325,0.36375 1.065,0.725625 1.755,1.179375 q 0.2625,0.1725 0.50625,0.350625 c 0.620625,0.4425 1.18125,0.84 1.869375,0.77625 0.40125,-0.0375 0.815625,-0.4125 1.025625,-1.5375 0.496875,-2.656875 1.47375,-8.41125 1.69875,-10.783125 A 2.625,2.625 0 0 0 21.92813,9.6101427 0.6375,0.6375 0 0 0 21.71438,9.2032677 0.99375,0.99375 0 0 0 21.13313,9.0288927 c -0.5625,0.00938 -1.430625,0.31125 -5.595,2.0437503"
     id="path1"
     style="stroke-width:1.875" />
</svg>
