<?xml version="1.0" encoding="UTF-8" standalone="no"?>
<svg
   width="20"
   height="20"
   fill="currentColor"
   class="bi bi-telegram"
   viewBox="0 0 20 20"
   version="1.1"
   id="svg1"
   sodipodi:docname="telegram.svg"
   inkscape:version="1.3.1 (9b9bdc1480, 2023-11-25, custom)"
   xmlns:inkscape="http://www.inkscape.org/namespaces/inkscape"
   xmlns:sodipodi="http://sodipodi.sourceforge.net/DTD/sodipodi-0.dtd"
   xmlns="http://www.w3.org/2000/svg"
   xmlns:svg="http://www.w3.org/2000/svg">
  <defs
     id="defs1" />
  <sodipodi:namedview
     id="namedview1"
     pagecolor="#ffffff"
     bordercolor="#000000"
     borderopacity="0.25"
     inkscape:showpageshadow="2"
     inkscape:pageopacity="0.0"
     inkscape:pagecheckerboard="0"
     inkscape:deskcolor="#d1d1d1"
     inkscape:zoom="73"
     inkscape:cx="7.9931507"
     inkscape:cy="8"
     inkscape:window-width="3440"
     inkscape:window-height="1371"
     inkscape:window-x="0"
     inkscape:window-y="0"
     inkscape:window-maximized="1"
     inkscape:current-layer="svg1" />
  <path
     d="m 20,9.9991633 a 10,10 0 1 1 -19.999999965,0 A 10,10 0 0 1 20,9.9991633 M 10.35875,7.3816629 q -1.4600004,0.6075005 -5.8324999,2.5125005 -0.70875,0.2812496 -0.74375,0.5524996 c -0.0375,0.30375 0.34375,0.42375 0.8625,0.5875 l 0.2187495,0.06875 c 0.51,0.16625 1.1975,0.36 1.55375,0.3675 q 0.4875,0.0125 1.085,-0.4 Q 11.58875,8.3129134 11.72,8.2829134 c 0.0625,-0.015 0.15,-0.0325 0.2075,0.02 0.0575,0.0525 0.0525,0.15 0.04625,0.17625 -0.0375,0.16125 -1.53375,1.5512496 -2.3075004,2.2712496 -0.24125,0.225 -0.4125,0.38375 -0.4475,0.42 a 10,10 0 0 1 -0.235,0.2325 c -0.475,0.4575 -0.83,0.8 0.01875,1.36 0.40875,0.27 0.73625,0.49125 1.0625004,0.71375 0.355,0.2425 0.71,0.48375 1.17,0.78625 q 0.175,0.115 0.3375,0.23375 c 0.41375,0.295 0.7875,0.56 1.24625,0.5175 0.2675,-0.025 0.54375,-0.275 0.68375,-1.025 0.33125,-1.77125 0.9825,-5.6074996 1.1325,-7.1887501 a 1.75,1.75 0 0 0 -0.01625,-0.39375 0.425,0.425 0 0 0 -0.1425,-0.27125 0.6625,0.6625 0 0 0 -0.3875,-0.11625 c -0.375,0.00625 -0.95375,0.2075 -3.73,1.3625"
     id="path1"
     style="stroke-width:1.25" />
</svg>
